HIERARCHY
ROOT Hips
{
	OFFSET 272.094208 92.886261 -190.072601
	CHANNELS 6 Xposition Yposition Zposition Zrotation Yrotation Xrotation 
	JOINT LeftUpLeg
	{
		OFFSET 0.103458 1.857832 10.548514
		CHANNELS 3 Zrotation Yrotation Xrotation
		JOINT LeftLeg
		{
			OFFSET 43.500000 -0.000027 0.000013
			CHANNELS 3 Zrotation Yrotation Xrotation
			JOINT LeftFoot
			{
				OFFSET 42.372200 0.000008 -0.000018
				CHANNELS 3 Zrotation Yrotation Xrotation
				JOINT LeftToe
				{
					OFFSET 17.299995 -0.000003 0.000021
					CHANNELS 3 Zrotation Yrotation Xrotation
					End Site
					{
						OFFSET 0.000000 0.000000 0.000000
					}
				}
			}
		}
	}
	JOINT RightUpLeg
	{
		OFFSET 0.103456 1.857824 -10.548508
		CHANNELS 3 Zrotation Yrotation Xrotation
		JOINT RightLeg
		{
			OFFSET 43.500038 -0.000019 -0.000010
			CHANNELS 3 Zrotation Yrotation Xrotation
			JOINT RightFoot
			{
				OFFSET 42.372265 -0.000011 0.000021
				CHANNELS 3 Zrotation Yrotation Xrotation
				JOINT RightToe
				{
					OFFSET 17.300001 -0.000001 0.000008
					CHANNELS 3 Zrotation Yrotation Xrotation
					End Site
					{
						OFFSET 0.000000 0.000000 0.000000
					}
				}
			}
		}
	}
	JOINT Spine
	{
		OFFSET 6.901966 -2.603731 -0.000012
		CHANNELS 3 Zrotation Yrotation Xrotation
		JOINT Spine1
		{
			OFFSET 12.588102 -0.000004 0.000024
			CHANNELS 3 Zrotation Yrotation Xrotation
			JOINT Spine2
			{
				OFFSET 12.343197 0.000004 0.000001
				CHANNELS 3 Zrotation Yrotation Xrotation
				JOINT Neck
				{
					OFFSET 25.832897 -0.000006 0.000001
					CHANNELS 3 Zrotation Yrotation Xrotation
					JOINT Head
					{
						OFFSET 11.766610 0.000010 -0.000015
						CHANNELS 3 Zrotation Yrotation Xrotation
						End Site
						{
							OFFSET 0.000000 0.000000 0.000000
						}
					}
				}
				JOINT LeftShoulder
				{
					OFFSET 19.745909 -1.480370 6.000081
					CHANNELS 3 Zrotation Yrotation Xrotation
					JOINT LeftArm
					{
						OFFSET 11.284137 -0.000004 -0.000017
						CHANNELS 3 Zrotation Yrotation Xrotation
						JOINT LeftForeArm
						{
							OFFSET 33.000042 0.000009 0.000020
							CHANNELS 3 Zrotation Yrotation Xrotation
							JOINT LeftHand
							{
								OFFSET 25.200012 0.000019 0.000012
								CHANNELS 3 Zrotation Yrotation Xrotation
								End Site
								{
									OFFSET 0.000000 0.000000 0.000000
								}
							}
						}
					}
				}
				JOINT RightShoulder
				{
					OFFSET 19.746096 -1.480375 -6.000086
					CHANNELS 3 Zrotation Yrotation Xrotation
					JOINT RightArm
					{
						OFFSET 11.284146 -0.000018 -0.000021
						CHANNELS 3 Zrotation Yrotation Xrotation
						JOINT RightForeArm
						{
							OFFSET 33.000084 0.000018 0.000009
							CHANNELS 3 Zrotation Yrotation Xrotation
							JOINT RightHand
							{
								OFFSET 25.199770 0.000139 0.000425
								CHANNELS 3 Zrotation Yrotation Xrotation
								End Site
								{
									OFFSET 0.000000 0.000000 0.000000
								}
							}
						}
					}
				}
			}
		}
	}
}
MOTION
Frames: 10
Frame Time: 0.033333
272.094208 92.886261 -190.072601 90.665441 5.222936 85.596621 -173.694771 -2.969898 179.316836 -8.001102 -1.540671 -8.432769 72.068324 4.307825 -5.769284 21.454553 0.003092 0.000001 -173.092607 4.780589 -176.472567 -10.671937 4.001375 8.928382 78.334285 -5.557407 3.445666 21.454563 -0.003109 -0.000017 6.751435 -0.206047 0.052428 3.489862 -0.436154 0.098261 3.171762 -0.437919 0.100929 9.088851 -12.448496 -13.907257 -22.021350 21.798900 -24.823831 -77.012493 -85.741584 -105.141193 -7.202992 9.832709 -12.844470 -22.810431 -16.223538 1.201306 16.162529 -1.671519 36.607826 -93.835079 81.334828 88.618556 -9.277885 -7.942551 12.932788 -19.860343 15.261177 -1.121082 8.364110 1.984124 -13.481937 
272.074585 92.887810 -190.081100 90.681328 5.204427 85.678187 -173.724646 -2.982197 179.358131 -7.984356 -1.540670 -8.409831 72.043544 4.291944 -5.764884 21.454553 0.003106 0.000002 -173.101268 4.769700 -176.459713 -10.668078 4.006113 8.970826 78.339196 -5.587437 3.445671 21.454558 -0.003108 -0.000018 6.755682 -0.206053 0.059362 3.498331 -0.436161 0.112081 3.180223 -0.437925 0.114767 8.915022 -12.379082 -13.676632 -21.962181 21.651329 -24.518395 -77.050449 -85.741496 -105.103081 -7.241250 9.808339 -12.869380 -22.834062 -16.240897 1.201298 16.181681 -1.685007 36.612666 -93.822894 81.348851 88.629470 -9.267097 -7.918841 12.829738 -19.838778 15.276051 -1.121063 8.254034 2.067682 -13.386072 
272.030914 92.890488 -190.102097 90.713470 5.162685 85.855908 -173.806308 -3.009895 179.368213 -7.977844 -1.540665 -8.312152 72.002324 4.225012 -5.749999 21.454553 0.003089 0.000000 -173.124122 4.743908 -176.440397 -10.661699 4.019909 9.068259 78.350937 -5.656648 3.445673 21.454560 -0.003106 -0.000018 6.765717 -0.206051 0.074753 3.518331 -0.436164 0.142824 3.200219 -0.437932 0.145518 8.514164 -12.238902 -13.167685 -21.811758 21.328398 -23.843649 -77.126407 -85.738552 -105.027382 -7.330676 9.759809 -12.926498 -22.890402 -16.288891 1.201298 16.183472 -1.718614 36.638695 -93.782315 81.367484 88.668812 -9.241472 -7.862047 12.611455 -19.827950 15.294124 -1.121061 8.103032 2.216295 -13.223995 
271.985687 92.893143 -190.125107 90.744036 5.119522 86.035631 -173.893188 -3.039197 179.355303 -7.976537 -1.535057 -8.199877 71.962101 4.147924 -5.733690 21.454553 0.003094 -0.000000 -173.148711 4.715901 -176.424401 -10.653966 4.035879 9.168908 78.361845 -5.728475 3.445677 21.454560 -0.003094 -0.000016 6.776786 -0.206049 0.089772 3.540412 -0.436161 0.172818 3.222289 -0.437932 0.175510 8.105784 -12.189126 -12.710639 -21.671340 21.116858 -23.281738 -77.283748 -85.730561 -104.870718 -7.426984 9.711840 -12.986490 -22.950228 -16.344692 1.201301 16.094431 -1.749432 36.659746 -93.723801 81.388623 88.725838 -9.231381 -7.827398 12.534037 -19.899702 15.280265 -1.121053 8.186010 2.107469 -13.330776 
271.940887 92.895721 -190.148895 90.772750 5.075476 86.211857 -173.983360 -3.068106 179.331166 -7.980416 -1.525519 -8.083172 71.924221 4.067516 -5.717923 21.454553 0.003093 0.000001 -173.176496 4.687100 -176.405058 -10.648634 4.051030 9.265185 78.372206 -5.797371 3.445669 21.454557 -0.003106 -0.000018 6.788199 -0.206052 0.103844 3.563195 -0.436155 0.200966 3.245085 -0.437925 0.203637 7.717491 -12.179420 -12.324531 -21.532957 20.983697 -22.829226 -77.537311 -85.712665 -104.618438 -7.525365 9.665889 -13.046134 -23.008962 -16.401811 1.201304 15.941163 -1.773686 36.648415 -93.654973 81.434365 88.791052 -9.234103 -7.843783 12.641023 -19.998020 15.292580 -1.121064 8.306120 1.883998 -13.655000 
271.897888 92.898178 -190.172394 90.800180 5.031220 86.380576 -174.074024 -3.093794 179.308298 -7.987601 -1.512900 -7.971713 71.889059 3.990156 -5.704607 21.454551 0.003081 -0.000001 -173.208447 4.659110 -176.373516 -10.649745 4.061956 9.349128 78.382609 -5.857591 3.445669 21.454558 -0.003100 -0.000017 6.799143 -0.206045 0.117965 3.585018 -0.436167 0.229205 3.266916 -0.437924 0.231860 7.372593 -12.106979 -12.007455 -21.418189 20.838555 -22.438211 -77.675712 -85.688931 -104.481984 -7.617549 9.628772 -13.100630 -23.060740 -16.449290 1.204919 15.784746 -1.805369 36.589310 -93.655813 81.525391 88.782378 -9.214157 -7.893434 12.790311 -20.093151 15.320616 -1.121073 8.394267 1.665862 -13.963920 
271.857300 92.900551 -190.192993 90.825390 4.988847 86.541488 -174.160535 -3.116896 179.302288 -7.995947 -1.499662 -7.874998 71.857237 3.922211 -5.695340 21.454551 0.003106 0.000001 -173.238459 4.630491 -176.309080 -10.653589 4.062864 9.408633 78.390935 -5.900532 3.445668 21.454557 -0.003104 -0.000017 6.809076 -0.206055 0.131498 3.604859 -0.436156 0.256292 3.286747 -0.434469 0.258917 7.098704 -11.984566 -11.757644 -21.355551 20.703637 -22.120894 -77.752333 -85.661623 -104.408054 -7.698310 9.600336 -13.147398 -23.104390 -16.481924 1.207542 15.691952 -1.816295 36.467008 -93.702190 81.649714 88.724861 -9.197324 -7.950976 12.872290 -20.123969 15.336568 -1.121078 8.392393 1.560873 -14.062025 
271.818695 92.902618 -190.208496 90.848257 4.949363 86.695352 -174.240462 -3.138193 179.330756 -8.004962 -1.489193 -7.802732 71.829971 3.870131 -5.692227 21.454551 0.003093 -0.000001 -173.264551 4.599002 -176.208348 -10.661508 4.049589 9.442496 78.399186 -5.924892 3.443581 21.454560 -0.003115 -0.000019 6.817241 -0.206059 0.144286 3.621124 -0.430626 0.281940 3.303020 -0.428772 0.284545 6.900639 -11.836113 -11.577084 -21.339353 20.594067 -21.886124 -77.770310 -85.644862 -104.391696 -7.748496 9.578744 -13.186131 -23.145416 -16.503318 1.209623 15.708699 -1.763115 36.381563 -93.784303 81.757644 88.632913 -9.218423 -8.004352 12.909146 -20.133634 15.321294 -1.121823 8.320892 1.620644 -14.075054 
271.782990 92.904030 -190.216995 90.871227 4.911905 86.841771 -174.312452 -3.153398 179.418059 -8.012091 -1.482564 -7.769665 71.807193 3.843369 -5.699065 21.454550 0.003081 -0.000001 -173.289426 4.567793 -176.081075 -10.679038 4.023250 9.456323 78.412361 -5.934008 3.443161 21.454557 -0.003106 -0.000017 6.822414 -0.206058 0.157465 3.631434 -0.424370 0.308345 3.313319 -0.422370 0.310911 6.745992 -11.679472 -11.440191 -21.321839 20.514731 -21.703362 -77.823469 -85.615499 -104.341262 -7.812975 9.557386 -13.216283 -23.169641 -16.519659 1.211088 15.793530 -1.685937 36.375412 -93.912294 81.831916 88.497696 -9.265306 -8.043810 12.903814 -20.171178 15.287340 -1.122580 8.231367 1.775169 -14.047202 
271.751007 92.904388 -190.216705 90.894703 4.877143 86.980717 -174.377325 -3.164595 179.569307 -8.022513 -1.486384 -7.778182 71.793245 3.844570 -5.713536 21.454550 0.003085 0.000000 -173.310887 4.540801 -175.962298 -10.703402 3.996271 9.470165 78.431629 -5.942017 3.448567 21.454560 -0.003105 -0.000018 6.822941 -0.206059 0.170899 3.634332 -0.417348 0.335318 3.316231 -0.415170 0.337827 6.630761 -11.524469 -11.335936 -21.294404 20.465371 -21.560768 -77.870331 -85.589135 -104.296811 -7.869264 9.533898 -13.237987 -23.181531 -16.533472 1.212145 15.893492 -1.642449 36.437137 -94.068862 81.902403 88.334037 -9.308989 -8.059584 12.840027 -20.242661 15.269110 -1.123336 8.210504 1.909346 -14.214285 
